<svg width="321" height="546" viewBox="0 0 321 546" fill="none" xmlns="http://www.w3.org/2000/svg">
<g clip-path="url(#clip0_259_124)">
<path d="M235.253 0H55.394C27.4204 0 4.74341 21.6058 4.74341 48.258V439.841C4.74341 466.493 27.4204 488.099 55.394 488.099H235.253C263.227 488.099 285.904 466.493 285.904 439.841V48.258C285.904 21.6058 263.227 0 235.253 0Z" fill="#3F3D56"/>
<path d="M281.161 48.2612V439.841C281.147 451.438 276.305 462.555 267.699 470.755C259.092 478.955 247.424 483.568 235.252 483.581H55.3958C43.2244 483.568 31.5556 478.955 22.9491 470.755C14.3427 462.555 9.50139 451.438 9.4873 439.841V48.2612C9.5014 36.6648 14.3427 25.5472 22.9491 17.3473C31.5556 9.14738 43.2244 4.53477 55.3958 4.52135H78.9149V12.2619C78.9151 15.7662 80.3763 19.1269 82.9771 21.6048C85.5778 24.0827 89.1052 25.4749 92.7832 25.4751C123.232 34.2386 158.974 32.8707 197.865 25.4751C201.543 25.4749 205.07 24.0827 207.671 21.6048C210.272 19.1269 211.733 15.7662 211.733 12.2619V4.52135H235.252C247.424 4.53477 259.092 9.14738 267.699 17.3473C276.305 25.5472 281.147 36.6648 281.161 48.2612Z" fill="white"/>
<path d="M3.44982 99.0166C2.53519 99.0157 1.65832 98.669 1.01158 98.0528C0.364845 97.4367 0.00104773 96.6012 0 95.7298V89.1561C0 88.2843 0.36346 87.4483 1.01043 86.8319C1.65739 86.2155 2.53487 85.8692 3.44982 85.8692C4.36477 85.8692 5.24225 86.2155 5.88921 86.8319C6.53618 87.4483 6.89964 88.2843 6.89964 89.1561V95.7298C6.89859 96.6012 6.5348 97.4367 5.88806 98.0528C5.24132 98.669 4.36445 99.0157 3.44982 99.0166Z" fill="#3F3D56"/>
<path d="M3.44982 132.725C2.53519 132.724 1.65832 132.377 1.01158 131.761C0.364844 131.145 0.00104545 130.309 0 129.438V111.342C0 110.471 0.36346 109.635 1.01043 109.018C1.65739 108.402 2.53487 108.056 3.44982 108.056C4.36477 108.056 5.24225 108.402 5.88921 109.018C6.53618 109.635 6.89964 110.471 6.89964 111.342V129.438C6.89859 130.309 6.5348 131.145 5.88806 131.761C5.24132 132.377 4.36445 132.724 3.44982 132.725Z" fill="#3F3D56"/>
<path d="M3.44982 159.824C2.53519 159.823 1.65832 159.476 1.01158 158.86C0.364844 158.244 0.00104545 157.408 0 156.537V138.441C0 137.57 0.36346 136.734 1.01043 136.117C1.65739 135.501 2.53487 135.154 3.44982 135.154C4.36477 135.154 5.24225 135.501 5.88921 136.117C6.53618 136.734 6.89964 137.57 6.89964 138.441V156.537C6.89859 157.408 6.5348 158.244 5.88806 158.86C5.24132 159.476 4.36445 159.823 3.44982 159.824Z" fill="#3F3D56"/>
<path d="M286.336 94.3098C285.423 94.3091 284.546 94.6541 283.899 95.2689C283.252 95.8837 282.888 96.718 282.886 97.5885V141.747C282.886 142.619 283.25 143.455 283.897 144.072C284.544 144.688 285.421 145.034 286.336 145.034C287.251 145.034 288.129 144.688 288.776 144.072C289.423 143.455 289.786 142.619 289.786 141.747V97.5885C289.783 96.7184 289.418 95.8849 288.772 95.2704C288.125 94.6559 287.25 94.3105 286.336 94.3098Z" fill="#3F3D56"/>
<path d="M68.6393 23.8898H45.353C44.2094 23.8898 43.1125 23.4569 42.3038 22.6864C41.4951 21.9159 41.0408 20.8709 41.0408 19.7812C41.0408 18.6915 41.4951 17.6465 42.3038 16.876C43.1125 16.1055 44.2094 15.6726 45.353 15.6726H68.6393C69.783 15.6726 70.8799 16.1055 71.6886 16.876C72.4973 17.6465 72.9516 18.6915 72.9516 19.7812C72.9516 20.8709 72.4973 21.9159 71.6886 22.6864C70.8799 23.4569 69.783 23.8898 68.6393 23.8898Z" fill="#E6E6E6"/>
<path d="M203.935 435.285C197.446 435.672 193.859 427.99 198.769 423.513C198.949 422.833 199.078 422.344 199.257 421.663C199.193 421.515 199.128 421.367 199.063 421.219C192.501 406.31 179.212 414.68 163.752 421.344C151.001 426.841 138.149 434.002 148.813 461.884C151.054 467.741 148.367 474.371 149.808 480.441C136.243 452.249 129.199 421.608 129.154 390.595C129.151 382.813 129.605 375.036 130.513 367.302C131.264 360.962 132.305 354.667 133.638 348.417C139.233 322.404 149.728 297.573 164.615 275.125C162.72 275.15 160.822 275.169 158.921 275.184C155.5 280.506 152.312 285.954 149.356 291.529C150.033 286.116 150.145 280.652 149.689 275.218C126.634 275.211 103.597 274.508 83.2292 273.111C84.0018 332.586 107.044 344.988 135.301 316.503C136.092 316.889 136.864 317.276 137.655 317.643C130.848 336.021 126.579 355.163 124.954 374.59C124.034 386.051 124.088 397.564 125.117 409.016C125.096 408.881 125.076 408.746 125.056 408.611C122.458 395.875 115.328 384.384 104.868 376.078C89.3335 363.919 67.3854 359.442 50.6258 349.669C42.5583 344.964 32.2203 351.044 33.6283 359.955C33.6508 360.098 33.6737 360.24 33.6969 360.382C36.1952 361.352 38.6278 362.468 40.9804 363.726C42.3266 364.45 43.6445 365.218 44.9339 366.03C52.2826 370.661 49.7429 381.515 41.0355 382.795L40.8382 382.824C40.6962 382.844 40.5744 382.863 40.4326 382.882C44.7014 392.593 50.6927 401.532 58.1443 409.306C60.222 470.391 93.9549 462.514 130.046 439.365H130.067C133.732 454.539 139.042 469.309 145.912 483.437H202.517C202.72 482.838 202.902 482.219 203.085 481.62C197.846 481.934 192.585 481.635 187.422 480.731C191.622 475.821 195.822 470.873 200.021 465.963C200.115 465.871 200.203 465.774 200.285 465.673C202.415 463.16 204.566 460.666 206.696 458.154L206.697 458.15C206.811 450.448 205.883 442.763 203.937 435.286L203.935 435.285Z" fill="#B8C5D6"/>
<path d="M143.619 249.002C138.128 236.381 127.835 225.751 118.771 214.84C107.884 201.733 85.5585 207.453 83.6404 224.067C83.6219 224.228 83.6037 224.389 83.5861 224.55C84.9324 225.273 86.2503 226.041 87.5397 226.854C94.8885 231.485 92.3487 242.338 83.6413 243.619L83.4441 243.648C83.9237 248.271 84.7715 252.852 85.9801 257.353C84.5347 262.509 83.6134 267.786 83.2292 273.111C103.597 274.508 126.634 275.211 149.689 275.218C148.941 265.558 146.687 256.045 143.619 249.002Z" fill="#E6E6E6"/>
<path d="M202.882 233.007C204.903 229.177 206.331 225.088 207.122 220.868C205.885 221.023 202.456 203.065 203.389 201.963C201.664 199.47 198.577 198.23 196.694 195.797C187.326 183.696 174.419 185.809 167.681 202.253C153.288 209.174 153.148 220.653 161.98 231.693C167.599 238.716 168.371 248.22 173.301 255.739C172.794 256.358 172.266 256.957 171.759 257.576C166.513 264.001 161.651 270.703 157.196 277.649C159.097 277.635 160.995 277.615 162.89 277.591C167.361 270.851 172.225 264.356 177.46 258.136C188.431 252.433 197.304 243.663 202.882 233.007Z" fill="#E6E6E6"/>
<path opacity="0.1" d="M280.59 48.0833V257.243C280.59 281.36 8.91675 281.36 8.91675 257.243V48.0833C8.93084 36.4869 13.7721 25.3693 22.3786 17.1694C30.985 8.96948 42.6538 4.35687 54.8252 4.34344H78.3444V12.084C78.3446 15.5883 79.8058 18.949 82.4065 21.4269C85.0073 23.9048 88.5346 25.297 92.2127 25.2972C121.368 34.0216 157.362 32.5853 197.294 25.2972C200.972 25.297 204.499 23.9048 207.1 21.4269C209.701 18.949 211.162 15.5883 211.162 12.084V4.34344H234.682C246.853 4.35687 258.522 8.96948 267.128 17.1694C275.735 25.3693 280.576 36.4869 280.59 48.0833Z" fill="black"/>
<path d="M170.586 70.6855H162.824C159.852 70.6887 157.002 71.8151 154.9 73.8178C152.798 75.8204 151.616 78.5357 151.612 81.3678V89.585H137.813C134.84 89.5881 131.991 90.7146 129.889 92.7172C127.787 94.7199 126.604 97.4351 126.601 100.267V116.702C126.604 119.534 127.787 122.249 129.889 124.252C131.991 126.254 134.84 127.381 137.813 127.384H155.062C158.035 127.381 160.885 126.254 162.986 124.252C165.088 122.249 166.271 119.534 166.274 116.702V100.267C166.271 97.4351 165.088 94.7199 162.986 92.7172C160.885 90.7146 158.035 89.5881 155.062 89.585H153.337V81.3678C153.34 78.9714 154.34 76.6739 156.119 74.9794C157.898 73.2849 160.309 72.3317 162.824 72.329H170.586C173.102 72.3317 175.513 73.2849 177.291 74.9794C179.07 76.6739 180.07 78.9714 180.073 81.3678V90.4067H181.798V81.3678C181.795 78.5357 180.613 75.8204 178.511 73.8178C176.409 71.8152 173.559 70.6887 170.586 70.6855ZM164.549 100.267V116.702C164.546 119.098 163.546 121.396 161.767 123.09C159.989 124.785 157.577 125.738 155.062 125.74H137.813C135.298 125.738 132.886 124.785 131.108 123.09C129.329 121.396 128.329 119.098 128.326 116.702V100.267C128.329 97.8709 129.329 95.5734 131.108 93.8788C132.886 92.1843 135.298 91.2311 137.813 91.2284C145.98 95.7555 150.479 93.414 155.062 91.2284C157.577 91.2311 159.989 92.1843 161.767 93.8788C163.546 95.5734 164.546 97.8709 164.549 100.267Z" fill="white"/>
<path d="M146.437 115.88C147.973 115.88 149.473 115.446 150.75 114.634C152.026 113.821 153.021 112.666 153.609 111.315C154.196 109.963 154.35 108.476 154.05 107.042C153.751 105.607 153.012 104.289 151.926 103.255C150.84 102.221 149.457 101.516 147.952 101.231C146.446 100.946 144.885 101.092 143.467 101.652C142.049 102.212 140.836 103.16 139.983 104.376C139.131 105.592 138.675 107.022 138.675 108.484C138.678 110.445 139.496 112.325 140.951 113.711C142.407 115.098 144.379 115.878 146.437 115.88ZM146.437 106.841C149.766 106.841 152.475 105.313 152.475 108.484C152.475 110.01 151.839 111.473 150.706 112.552C149.574 113.63 148.039 114.236 146.437 114.236C144.836 114.236 143.301 113.63 142.168 112.552C141.036 111.473 140.4 110.01 140.4 108.484C140.4 105.313 143.108 106.841 146.437 106.841Z" fill="white"/>
<path d="M146.437 110.95C147.866 110.95 149.025 109.846 149.025 108.484C149.025 107.123 147.866 106.019 146.437 106.019C145.009 106.019 143.85 107.123 143.85 108.484C143.85 109.846 145.009 110.95 146.437 110.95Z" fill="white"/>
<path d="M289.786 118.345H283.568V119.988H289.786V118.345Z" fill="white"/>
<path opacity="0.1" d="M9.30713 253.149V257.258C9.30713 281.375 280.98 281.375 280.98 257.258V253.149C280.98 277.267 9.30713 277.267 9.30713 253.149Z" fill="black"/>
<path d="M249.266 311.938C250.953 311.61 252.44 310.668 253.409 309.312C254.378 307.956 254.754 306.293 254.457 304.677C254.391 304.35 254.297 304.028 254.175 303.715L271.846 289.596L267.481 278.532L245.469 300.368C244.147 300.949 243.064 301.93 242.389 303.159C241.714 304.389 241.485 305.796 241.738 307.162C242.045 308.729 242.992 310.116 244.372 311.018C245.752 311.92 247.451 312.262 249.096 311.97C249.153 311.96 249.209 311.949 249.266 311.938Z" fill="#A0616A"/>
<path d="M257.586 228.624L250.579 233.948C250.579 233.948 242.205 248.454 248.207 251.463C254.21 254.471 272.871 264.477 272.871 264.477C272.871 264.477 265.159 271.792 264.249 275.345C263.339 278.898 265.353 282.055 262.157 281.312C258.961 280.569 258.87 282.988 258.09 286.034C257.31 289.079 252.112 291.883 252.112 291.883L262.048 298.868C262.048 298.868 266.646 300.415 267.023 296.738C267.4 293.061 266.353 293.58 269.549 294.323C272.746 295.066 275.439 290.301 277.141 285.856C278.844 281.412 296.213 260.727 296.213 260.727L278.04 241.459C272.493 235.577 265.449 231.157 257.586 228.624Z" fill="#B8C5D6"/>
<path d="M255.99 530.559L248.755 530.501L245.552 503.293L256.23 503.379L255.99 530.559Z" fill="#A0616A"/>
<path d="M232.816 541.52C232.809 542.337 233.143 543.124 233.744 543.706C234.346 544.289 235.165 544.621 236.022 544.629L250.407 544.743L252.925 539.88L253.85 544.768L259.278 544.815L257.907 527.381L256.019 527.261L248.317 526.755L245.832 526.597L245.788 531.53L234.233 538.997C233.8 539.277 233.445 539.653 233.198 540.092C232.951 540.532 232.82 541.022 232.816 541.52Z" fill="#2F2E41"/>
<path d="M189.567 530.559L182.333 530.501L179.129 503.293L189.807 503.379L189.567 530.559Z" fill="#A0616A"/>
<path d="M166.393 541.52C166.387 542.337 166.721 543.124 167.322 543.706C167.923 544.289 168.742 544.621 169.6 544.629L183.985 544.743L186.503 539.88L187.428 544.768L192.855 544.815L191.485 527.381L189.596 527.261L181.894 526.755L179.409 526.597L179.366 531.53L167.811 538.997C167.378 539.277 167.023 539.653 166.776 540.092C166.529 540.532 166.398 541.022 166.393 541.52Z" fill="#2F2E41"/>
<path d="M208.285 300.162C208.285 300.162 194.393 306.682 198.014 310.607C201.636 314.532 198.659 316.751 194.145 320.438C189.631 324.124 180.543 367.308 180.543 367.308L168.776 434.203C168.776 434.203 171.898 492.614 173.993 494.694C176.088 496.775 179.313 493.703 176.088 496.775C172.864 499.847 170.285 497.389 172.864 499.847C175.444 502.305 176.088 509.063 176.088 509.063L192.799 507.721C192.799 507.721 203.677 462.823 196.331 442.934L225.148 370.176L233.86 440.38C233.86 440.38 238.642 497.389 241.866 499.232C245.09 501.076 247.413 501.2 244.64 503.595C241.866 505.991 241.866 502.305 241.866 505.991V512.106L257.465 514.146C257.465 514.146 264.711 459.493 261.349 434.203L271.53 349.315L263.599 311.062L255.408 300.776L208.285 300.162Z" fill="#2F2E41"/>
<path d="M141.247 279.472C142.638 280.439 144.37 280.852 146.075 280.621C147.78 280.391 149.323 279.535 150.376 278.237C150.586 277.97 150.772 277.687 150.933 277.391L173.788 280.324L179.431 269.798L147.666 269.005C146.324 268.465 144.833 268.364 143.425 268.716C142.017 269.069 140.771 269.856 139.882 270.954C139.382 271.584 139.017 272.301 138.808 273.065C138.6 273.829 138.551 274.624 138.665 275.406C138.778 276.188 139.053 276.941 139.472 277.622C139.891 278.302 140.447 278.898 141.108 279.374C141.154 279.407 141.2 279.44 141.247 279.472Z" fill="#A0616A"/>
<path d="M211.483 229.213L202.633 227.865C202.633 227.865 192.011 233.39 193.72 239.644C195.429 245.898 193.966 264.127 193.966 264.127C193.966 264.127 183.096 263.623 179.727 265.375C176.358 267.128 175.265 270.672 173.689 267.921C172.112 265.17 173.775 263.71 170.887 265.212C167.999 266.714 158.722 267.968 158.722 267.968L154.993 280.067C154.993 280.067 160.174 286.856 163.28 284.645C166.387 282.434 166.998 279.139 168.574 281.891C170.151 284.642 170.591 289.77 175.185 287.976C179.779 286.181 212.598 278.038 212.598 278.038L216.564 240.261L211.483 229.213Z" fill="#B8C5D6"/>
<path d="M202.846 309.489C202.846 309.489 196.597 299.988 197.787 298.594C198.977 297.201 200.467 299.61 197.787 297.176C195.107 294.743 210.135 278.506 211.122 276.114C212.109 273.723 196.08 231.962 196.08 231.962L209.731 224.128L221.269 208.662L241.904 211.807L249.164 225.829L259.419 229.277L260.282 230.098V255.571C260.282 255.571 264.845 277.314 254.804 284.8C254.804 284.8 259.595 294.743 258.305 296.587C257.016 298.43 280.206 322.65 262.006 325.417C242.072 328.448 199.55 308.415 202.846 309.489Z" fill="#B8C5D6"/>
<path d="M100.496 545.022C100.496 545.151 100.522 545.278 100.573 545.397C100.625 545.516 100.7 545.624 100.796 545.714C100.891 545.805 101.004 545.877 101.129 545.926C101.254 545.975 101.388 546 101.522 546H319.974C320.246 546 320.507 545.897 320.699 545.714C320.892 545.53 321 545.281 321 545.022C321 544.763 320.892 544.514 320.699 544.331C320.507 544.147 320.246 544.044 319.974 544.044H101.522C101.388 544.044 101.254 544.069 101.129 544.118C101.004 544.167 100.891 544.239 100.796 544.33C100.7 544.421 100.625 544.529 100.573 544.648C100.522 544.766 100.496 544.894 100.496 545.022Z" fill="#CCCCCC"/>
<path d="M234.626 212.534C246.231 212.534 255.639 203.571 255.639 192.514C255.639 181.458 246.231 172.494 234.626 172.494C223.022 172.494 213.614 181.458 213.614 192.514C213.614 203.571 223.022 212.534 234.626 212.534Z" fill="#A0616A"/>
<path d="M250.863 177.714C250.647 175.912 249.351 173.685 248.449 172.088C247.548 170.491 245.807 169.187 243.907 169.298C243.131 169.384 242.388 169.647 241.741 170.065C241.095 170.484 240.564 171.045 240.195 171.701C239.47 173.022 239.075 174.485 239.04 175.975C238.842 179.301 239.425 182.626 240.746 185.71C242.068 188.793 244.095 191.557 246.68 193.799C248.153 195.057 249.925 196.177 251.903 196.22C252.801 196.199 253.686 196.008 254.505 195.657C255.324 195.306 256.062 194.802 256.674 194.175C259.875 191.121 260.359 186.099 258.649 182.102C256.939 178.105 256.177 176.549 252.269 174.366" fill="#2F2E41"/>
<path d="M221.345 206.507C221.696 208.288 218.464 216.758 219.497 218.285C219.497 218.285 230.194 221.825 234.285 222.08C239.282 222.388 243.301 220.434 247.974 217.495C248.059 215.9 248.543 214.348 249.387 212.968C249.316 214.037 249.544 215.105 250.048 216.062C267.552 211.919 263.267 196.953 252.694 189.941L245.666 174.54C247.775 175.21 241.41 164.864 234.698 172.357C226.3 164.208 210.03 175.939 207.992 186.419C209.953 184.053 210.975 184.332 211.478 185.963C212.056 184.591 212.972 183.372 214.148 182.408C213.563 183.509 213.264 184.729 213.277 185.963C226.525 186.747 224.059 195.262 213.201 208.018C217.216 205.636 214.506 215.899 216.65 218.352C216.756 216.638 220.966 208.174 221.345 206.507Z" fill="#2F2E41"/>
<path d="M240.463 190.106C240.632 190.106 240.796 190.047 240.924 189.941C241.052 189.835 241.135 189.689 241.158 189.529C241.181 189.369 241.143 189.206 241.051 189.071C240.958 188.935 240.818 188.837 240.655 188.792C240.504 187.968 240.488 187.127 240.607 186.298C240.835 182.599 241.218 176.409 234.91 172.23C234.757 172.129 234.568 172.091 234.385 172.122C234.202 172.154 234.04 172.253 233.934 172.399C233.827 172.544 233.786 172.724 233.819 172.898C233.851 173.073 233.955 173.228 234.107 173.329C239.768 177.08 239.429 182.58 239.203 186.219C239.075 188.3 238.982 189.803 240.307 190.089C240.358 190.1 240.41 190.106 240.463 190.106Z" fill="#B8C5D6"/>
<path d="M240.135 175.471C244.425 173.775 248.994 172.81 253.634 172.621C257.314 172.472 261.705 173.254 263.201 176.461C264.109 178.407 263.626 180.688 262.795 182.664C261.965 184.641 258.085 188.632 260.319 188.588C265.931 188.479 268.326 193.26 265.48 200.689C263.829 204.998 274.073 204.832 278.849 205.409C275.261 206.677 271.617 207.958 267.803 208.262C263.989 208.566 259.916 207.776 257.068 205.34C253.987 202.703 252.803 198.608 252.279 194.694C251.754 190.78 251.727 186.748 250.335 183.032C248.942 179.316 245.743 175.855 241.616 175.525" fill="#2F2E41"/>
</g>
<defs>
<clipPath id="clip0_259_124">
<rect width="321" height="546" fill="white"/>
</clipPath>
</defs>
</svg>
